<svg xmlns="http://www.w3.org/2000/svg" display="none">
    <symbol id="star" viewBox="0 0 322 322">
        <path d="M190.196 85.9067L272.258 44.5754L234.652 128.56L322 157.396L235.973 190.196L277.305 272.258L193.44 234.652L164.604 322L131.804 235.973L49.6216 277.305L87.3485 193.44L0 164.604L85.9067 131.804L44.6955 49.6216L128.56 87.3485L157.396 0L190.196 85.9067Z"/>
    </symbol>

    <symbol id="stage-icon1" viewBox="0 0 91 92">
        <path d="M89.263 37.375C88.7289 36.84 88.0946 36.4155 87.3963 36.1259C86.698 35.8362 85.9494 35.6872 85.1934 35.6872C84.4375 35.6872 83.6889 35.8362 82.9906 36.1259C82.2923 36.4155 81.658 36.84 81.1239 37.375L68.9971 49.5018V21.5625C68.9888 21.5004 68.9764 21.4389 68.9598 21.3785C68.9524 21.3184 68.9409 21.2588 68.9253 21.2003C68.8692 20.9557 68.7492 20.7305 68.5774 20.5476L48.4524 0.422625C48.2707 0.250244 48.0464 0.129204 47.8026 0.071875C47.745 0.0563636 47.6864 0.0448364 47.6273 0.037375C47.5649 0.0205311 47.5015 0.00804258 47.4375 0H7.1875C5.28126 0 3.45309 0.757252 2.10517 2.10517C0.757252 3.45309 0 5.28126 0 7.1875V84.8125C0 86.7187 0.757252 88.5469 2.10517 89.8948C3.45309 91.2427 5.28126 92 7.1875 92H61.8125C62.7564 92 63.691 91.8141 64.563 91.4529C65.4351 91.0917 66.2274 90.5622 66.8948 89.8948C67.5623 89.2274 68.0917 88.4351 68.4529 87.563C68.8141 86.691 69 85.7564 69 84.8125V65.7685L89.2573 45.5112C89.7923 44.9776 90.2168 44.3438 90.5067 43.6459C90.7965 42.9481 90.946 42.2 90.9465 41.4443C90.9471 40.6887 90.7987 39.9403 90.5098 39.2421C90.2209 38.5439 89.7972 37.9094 89.263 37.375ZM48.875 4.90763L64.0924 20.125H53.1875C52.0438 20.125 50.9469 19.6706 50.1381 18.8619C49.3294 18.0531 48.875 16.9562 48.875 15.8125V4.90763ZM47.4864 20.125H12.9375C12.5563 20.125 12.1906 19.9735 11.921 19.704C11.6515 19.4344 11.5 19.0687 11.5 18.6875V12.9375C11.5 12.5563 11.6515 12.1906 11.921 11.921C12.1906 11.6515 12.5563 11.5 12.9375 11.5H46V15.8125C46.009 17.3741 46.5313 18.8895 47.4864 20.125ZM66.1365 84.8125C66.1365 85.9562 65.6822 87.0531 64.8734 87.8619C64.0646 88.6706 62.9678 89.125 61.824 89.125H7.199C6.05525 89.125 4.95835 88.6706 4.1496 87.8619C3.34085 87.0531 2.8865 85.9562 2.8865 84.8125V7.1875C2.8865 6.04574 3.33927 4.95058 4.14553 4.14216C4.9518 3.33374 6.04575 2.87804 7.1875 2.875H46V8.625H12.9375C11.7938 8.625 10.6969 9.07935 9.8881 9.8881C9.07935 10.6969 8.625 11.7938 8.625 12.9375V18.6875C8.625 19.8312 9.07935 20.9281 9.8881 21.7369C10.6969 22.5456 11.7938 23 12.9375 23H66.125V52.3796L49.6196 68.885C49.5548 68.9629 49.4989 69.0477 49.4529 69.138C49.4241 69.184 49.3753 69.2099 49.3523 69.2588L45.287 77.3893C45.1711 77.634 45.128 77.9069 45.1626 78.1755C45.1973 78.4441 45.3083 78.697 45.4825 78.9044L43.6943 80.7099C43.547 80.8406 43.4283 81.0002 43.3453 81.1787C43.2623 81.3573 43.2169 81.5509 43.2118 81.7477C43.2067 81.9446 43.2422 82.1403 43.3159 82.3229C43.3896 82.5054 43.5 82.6709 43.6403 82.809C43.7806 82.9472 43.9478 83.055 44.1315 83.1259C44.3152 83.1967 44.5114 83.2291 44.7082 83.221C44.9049 83.2128 45.0978 83.1644 45.275 83.0786C45.4522 82.9929 45.61 82.8716 45.7384 82.7224L47.4778 80.9629L47.587 81.0721C47.8002 81.2855 48.0751 81.4265 48.3728 81.475C48.6705 81.5235 48.976 81.4771 49.2459 81.3424L57.3764 77.2743C57.4253 77.2513 57.4511 77.2024 57.4971 77.1736C57.5874 77.1276 57.6722 77.0717 57.7501 77.0069L66.125 68.6349L66.1365 84.8125ZM51.0428 72.3293L54.3203 75.6068L48.9009 78.3179L48.5127 77.9269V77.9096H48.4955L48.346 77.7601L51.0428 72.3293ZM56.7583 73.9594L52.6614 69.9027L79.2609 43.3032L83.3261 47.3685L56.7583 73.9594ZM87.2476 43.4729L85.3846 45.3359L81.3165 41.2677L83.1795 39.4048C83.4466 39.1376 83.7637 38.9257 84.1127 38.7812C84.4617 38.6366 84.8358 38.5622 85.2136 38.5622C85.5913 38.5622 85.9654 38.6366 86.3144 38.7812C86.6634 38.9257 86.9805 39.1376 87.2476 39.4048C87.5148 39.6719 87.7266 39.989 87.8712 40.338C88.0158 40.687 88.0902 41.0611 88.0902 41.4388C88.0902 41.8166 88.0158 42.1906 87.8712 42.5396C87.7266 42.8886 87.5148 43.2058 87.2476 43.4729ZM24.4375 46H58.9375C59.3188 46 59.6844 45.8486 59.954 45.579C60.2236 45.3094 60.375 44.9437 60.375 44.5625C60.375 44.1813 60.2236 43.8156 59.954 43.546C59.6844 43.2764 59.3188 43.125 58.9375 43.125H24.4375C24.0563 43.125 23.6906 43.2764 23.421 43.546C23.1515 43.8156 23 44.1813 23 44.5625C23 44.9437 23.1515 45.3094 23.421 45.579C23.6906 45.8486 24.0563 46 24.4375 46ZM24.4375 37.375H58.9375C59.3188 37.375 59.6844 37.2236 59.954 36.954C60.2236 36.6844 60.375 36.3187 60.375 35.9375C60.375 35.5563 60.2236 35.1906 59.954 34.921C59.6844 34.6514 59.3188 34.5 58.9375 34.5H24.4375C24.0563 34.5 23.6906 34.6514 23.421 34.921C23.1515 35.1906 23 35.5563 23 35.9375C23 36.3187 23.1515 36.6844 23.421 36.954C23.6906 37.2236 24.0563 37.375 24.4375 37.375ZM38.8125 80.2844C37.7052 80.3125 36.6187 79.9806 35.7161 79.3385C34.3539 78.4542 32.7646 77.9836 31.1406 77.9836C29.5165 77.9836 27.9272 78.4542 26.565 79.3385C25.6624 79.9806 24.5759 80.3125 23.4686 80.2844C22.3655 80.3144 21.2823 79.9866 20.3809 79.35C19.0337 78.4389 17.4386 77.9651 15.8125 77.993C15.4313 77.993 15.0656 78.1444 14.796 78.414C14.5265 78.6836 14.375 79.0493 14.375 79.4305C14.375 79.8118 14.5265 80.1774 14.796 80.447C15.0656 80.7166 15.4313 80.868 15.8125 80.868C16.9179 80.8407 18.0023 81.1726 18.9031 81.8139C20.2503 82.725 21.8454 83.1988 23.4715 83.1709C25.099 83.1992 26.6958 82.7264 28.0456 81.8167C28.9601 81.2004 30.0378 80.8711 31.1406 80.8711C32.2434 80.8711 33.321 81.2004 34.2355 81.8167C35.5853 82.7264 37.1821 83.1992 38.8096 83.1709C39.1909 83.1709 39.5565 83.0194 39.8261 82.7498C40.0957 82.4803 40.2471 82.1146 40.2471 81.7334C40.2471 81.3521 40.0957 80.9865 39.8261 80.7169C39.5565 80.4473 39.1909 80.2959 38.8096 80.2959L38.8125 80.2844ZM24.4375 31.625H58.9375C59.3188 31.625 59.6844 31.4736 59.954 31.204C60.2236 30.9344 60.375 30.5687 60.375 30.1875C60.375 29.8063 60.2236 29.4406 59.954 29.171C59.6844 28.9014 59.3188 28.75 58.9375 28.75H24.4375C24.0563 28.75 23.6906 28.9014 23.421 29.171C23.1515 29.4406 23 29.8063 23 30.1875C23 30.5687 23.1515 30.9344 23.421 31.204C23.6906 31.4736 24.0563 31.625 24.4375 31.625ZM24.4375 51.75H58.9375C59.3188 51.75 59.6844 51.5986 59.954 51.329C60.2236 51.0594 60.375 50.6937 60.375 50.3125C60.375 49.9313 60.2236 49.5656 59.954 49.296C59.6844 49.0264 59.3188 48.875 58.9375 48.875H24.4375C24.0563 48.875 23.6906 49.0264 23.421 49.296C23.1515 49.5656 23 49.9313 23 50.3125C23 50.6937 23.1515 51.0594 23.421 51.329C23.6906 51.5986 24.0563 51.75 24.4375 51.75ZM12.9375 51.75C13.7904 51.75 14.6242 51.4971 15.3334 51.0232C16.0426 50.5494 16.5953 49.8758 16.9217 49.0878C17.2481 48.2998 17.3335 47.4327 17.1671 46.5962C17.0007 45.7596 16.59 44.9912 15.9869 44.3881C15.3838 43.785 14.6154 43.3743 13.7788 43.2079C12.9423 43.0415 12.0752 43.1269 11.2872 43.4533C10.4992 43.7797 9.82565 44.3324 9.35179 45.0416C8.87792 45.7508 8.625 46.5846 8.625 47.4375C8.625 48.5812 9.07935 49.6781 9.8881 50.4869C10.6969 51.2956 11.7938 51.75 12.9375 51.75ZM12.9375 46C13.2218 46 13.4997 46.0843 13.7361 46.2423C13.9725 46.4002 14.1568 46.6247 14.2656 46.8874C14.3744 47.1501 14.4028 47.4391 14.3474 47.7179C14.2919 47.9968 14.155 48.2529 13.954 48.454C13.7529 48.655 13.4968 48.7919 13.2179 48.8474C12.9391 48.9028 12.6501 48.8744 12.3874 48.7656C12.1247 48.6568 11.9002 48.4725 11.7423 48.2361C11.5843 47.9997 11.5 47.7218 11.5 47.4375C11.5 47.0563 11.6515 46.6906 11.921 46.421C12.1906 46.1514 12.5563 46 12.9375 46ZM17.25 61.8125C17.25 60.9596 16.9971 60.1258 16.5232 59.4166C16.0494 58.7074 15.3758 58.1547 14.5878 57.8283C13.7998 57.5019 12.9327 57.4165 12.0962 57.5829C11.2596 57.7493 10.4912 58.16 9.8881 58.7631C9.28499 59.3662 8.87426 60.1346 8.70786 60.9712C8.54146 61.8077 8.62687 62.6748 8.95327 63.4628C9.27967 64.2508 9.83242 64.9243 10.5416 65.3982C11.2508 65.8721 12.0846 66.125 12.9375 66.125C14.0812 66.125 15.1781 65.6706 15.9869 64.8619C16.7956 64.0531 17.25 62.9562 17.25 61.8125ZM12.9375 63.25C12.6532 63.25 12.3753 63.1657 12.1389 63.0077C11.9025 62.8498 11.7182 62.6253 11.6094 62.3626C11.5006 62.0999 11.4722 61.8109 11.5276 61.5321C11.5831 61.2532 11.72 60.9971 11.921 60.796C12.1221 60.595 12.3782 60.4581 12.6571 60.4026C12.9359 60.3472 13.2249 60.3756 13.4876 60.4844C13.7503 60.5932 13.9748 60.7775 14.1327 61.0139C14.2907 61.2503 14.375 61.5282 14.375 61.8125C14.375 62.1937 14.2236 62.5594 13.954 62.829C13.6844 63.0986 13.3187 63.25 12.9375 63.25ZM24.4375 60.375H47.4375C47.8188 60.375 48.1844 60.2236 48.454 59.954C48.7236 59.6844 48.875 59.3187 48.875 58.9375C48.875 58.5563 48.7236 58.1906 48.454 57.921C48.1844 57.6514 47.8188 57.5 47.4375 57.5H24.4375C24.0563 57.5 23.6906 57.6514 23.421 57.921C23.1515 58.1906 23 58.5563 23 58.9375C23 59.3187 23.1515 59.6844 23.421 59.954C23.6906 60.2236 24.0563 60.375 24.4375 60.375ZM12.9375 37.375C13.7904 37.375 14.6242 37.1221 15.3334 36.6482C16.0426 36.1744 16.5953 35.5008 16.9217 34.7128C17.2481 33.9248 17.3335 33.0577 17.1671 32.2212C17.0007 31.3846 16.59 30.6162 15.9869 30.0131C15.3838 29.41 14.6154 28.9993 13.7788 28.8329C12.9423 28.6665 12.0752 28.7519 11.2872 29.0783C10.4992 29.4047 9.82565 29.9574 9.35179 30.6666C8.87792 31.3758 8.625 32.2096 8.625 33.0625C8.625 34.2062 9.07935 35.3032 9.8881 36.1119C10.6969 36.9207 11.7938 37.375 12.9375 37.375ZM12.9375 31.625C13.2218 31.625 13.4997 31.7093 13.7361 31.8673C13.9725 32.0252 14.1568 32.2497 14.2656 32.5124C14.3744 32.7751 14.4028 33.0641 14.3474 33.3429C14.2919 33.6218 14.155 33.8779 13.954 34.079C13.7529 34.28 13.4968 34.4169 13.2179 34.4724C12.9391 34.5278 12.6501 34.4994 12.3874 34.3906C12.1247 34.2818 11.9002 34.0975 11.7423 33.8611C11.5843 33.6247 11.5 33.3468 11.5 33.0625C11.5 32.6813 11.6515 32.3156 11.921 32.046C12.1906 31.7764 12.5563 31.625 12.9375 31.625ZM24.4375 66.125H47.4375C47.8188 66.125 48.1844 65.9735 48.454 65.704C48.7236 65.4344 48.875 65.0687 48.875 64.6875C48.875 64.3063 48.7236 63.9406 48.454 63.671C48.1844 63.4014 47.8188 63.25 47.4375 63.25H24.4375C24.0563 63.25 23.6906 63.4014 23.421 63.671C23.1515 63.9406 23 64.3063 23 64.6875C23 65.0687 23.1515 65.4344 23.421 65.704C23.6906 65.9735 24.0563 66.125 24.4375 66.125Z"/>
    </symbol>

    <symbol id="stage-icon2" viewBox="0 0 66 66">
        <path d="M7.66992 48.3398H11.666C12.1616 48.3393 12.6367 48.1422 12.9871 47.7918C13.3375 47.4413 13.5346 46.9663 13.5352 46.4707V42.4746C13.5346 41.9791 13.3375 41.504 12.9871 41.1536C12.6367 40.8032 12.1616 40.606 11.666 40.6055H7.66992C7.17437 40.606 6.69928 40.8032 6.34887 41.1536C5.99846 41.504 5.80135 41.9791 5.80078 42.4746V46.4707C5.80135 46.9663 5.99846 47.4413 6.34887 47.7918C6.69928 48.1422 7.17437 48.3393 7.66992 48.3398ZM7.73438 42.5391H11.6016V46.4062H7.73438V42.5391ZM36.3621 41.6428C38.9258 41.641 41.4096 40.7505 43.3902 39.1228C45.3709 37.4952 46.726 35.2311 47.2245 32.7164C47.7231 30.2017 47.3344 27.5919 46.1245 25.3316C44.9146 23.0714 42.9585 21.3006 40.5894 20.3209C38.2204 19.3412 35.5849 19.2132 33.132 19.9588C30.6791 20.7043 28.5607 22.2773 27.1375 24.4096C25.7143 26.542 25.0745 29.1018 25.3271 31.653C25.5797 34.2042 26.709 36.5889 28.5226 38.4008C29.5514 39.4309 30.7736 40.2476 32.1189 40.8039C33.4643 41.3603 34.9063 41.6454 36.3621 41.6428ZM36.2534 29.9707H27.2347C27.3207 28.6132 27.7086 27.2921 28.3701 26.1035H36.2534C36.5098 26.1035 36.7557 26.0017 36.937 25.8203C37.1183 25.639 37.2202 25.3931 37.2202 25.1367C37.2202 24.8803 37.1183 24.6344 36.937 24.4531C36.7557 24.2718 36.5098 24.1699 36.2534 24.1699H29.8132C29.8392 24.1432 29.8636 24.1155 29.89 24.0891C31.607 22.3746 33.9344 21.412 36.3608 21.4129C38.7872 21.4138 41.114 22.378 42.8297 24.0938C44.5455 25.8095 45.5097 28.1362 45.5106 30.5627C45.5115 32.9891 44.5489 35.3165 42.8344 37.0335H42.8343C41.6359 38.2332 40.1276 39.0762 38.4779 39.4684C36.8282 39.8605 35.1019 39.7865 33.4919 39.2544C31.8818 38.7224 30.4513 37.7533 29.3601 36.4554C28.2689 35.1575 27.5599 33.5818 27.3122 31.9043H36.2534C36.5098 31.9043 36.7557 31.8024 36.937 31.6211C37.1183 31.4398 37.2202 31.1939 37.2202 30.9375C37.2202 30.6811 37.1183 30.4352 36.937 30.2539C36.7557 30.0726 36.5098 29.9707 36.2534 29.9707ZM14.7761 6.04915C14.5849 6.04915 14.398 6.10586 14.239 6.21209C14.08 6.31832 13.9561 6.46931 13.8829 6.64597C13.8098 6.82263 13.7906 7.01702 13.8279 7.20456C13.8652 7.3921 13.9573 7.56437 14.0925 7.69958C14.2277 7.83479 14.4 7.92687 14.5875 7.96417C14.7751 8.00148 14.9695 7.98233 15.1461 7.90915C15.3228 7.83598 15.4738 7.71206 15.58 7.55307C15.6862 7.39409 15.7429 7.20717 15.7429 7.01595C15.7429 6.75954 15.6411 6.51363 15.4598 6.33232C15.2785 6.15102 15.0325 6.04916 14.7761 6.04915ZM17.6765 32.8711C17.6765 32.9981 17.7015 33.1238 17.7501 33.2411C17.7987 33.3584 17.8699 33.465 17.9597 33.5547C18.0495 33.6445 18.156 33.7157 18.2733 33.7643C18.3906 33.8129 18.5164 33.8379 18.6433 33.8379H21.8074C22.3369 36.1809 23.4239 38.3615 24.9761 40.1948C26.5282 42.028 28.4998 43.4597 30.7233 44.3684C32.9469 45.2771 35.3569 45.6359 37.7488 45.4144C40.1406 45.1928 42.4437 44.3976 44.4626 43.096L45.8429 44.4763C45.6111 44.7438 45.4891 45.0892 45.5015 45.4429C45.5139 45.7967 45.6596 46.1326 45.9095 46.3833L54.5587 55.0324C54.9706 55.445 55.4597 55.7724 55.9982 55.9959C56.5366 56.2194 57.1139 56.3346 57.6969 56.3349C58.2799 56.3351 58.8572 56.2205 59.3959 55.9975C59.9346 55.7746 60.424 55.4476 60.8363 55.0354C61.2485 54.6231 61.5755 54.1337 61.7985 53.595C62.0214 53.0563 62.1361 52.479 62.1358 51.896C62.1355 51.313 62.0203 50.7357 61.7968 50.1973C61.5734 49.6588 61.2459 49.1696 60.8333 48.7578L52.1841 40.1086C51.9334 39.8588 51.5975 39.7131 51.2438 39.7007C50.8901 39.6884 50.5448 39.8103 50.2773 40.0419L48.897 38.6616C50.897 35.5665 51.6812 31.8409 51.0985 28.2022C50.5159 24.5634 48.6076 21.2689 45.7411 18.9531C42.8747 16.6372 39.2528 15.4637 35.5729 15.6586C31.8929 15.8535 28.4152 17.403 25.8094 20.0087C25.7125 20.1056 25.6172 20.2037 25.5237 20.3027H18.6433C18.3869 20.3027 18.141 20.4046 17.9597 20.5859C17.7784 20.7672 17.6765 21.0131 17.6765 21.2695C17.6765 21.5259 17.7784 21.7719 17.9597 21.9532C18.141 22.1345 18.3869 22.2363 18.6433 22.2363H23.9756C22.0684 25.0806 21.1966 28.4938 21.5063 31.9043H18.6433C18.5164 31.9043 18.3906 31.9293 18.2733 31.9779C18.156 32.0265 18.0495 32.0977 17.9597 32.1874C17.8699 32.2772 17.7987 32.3838 17.7501 32.5011C17.7015 32.6184 17.6765 32.7441 17.6765 32.8711ZM50.9561 42.0906L50.9574 42.0894L50.9586 42.0881L51.1938 41.8529L59.4659 50.1252C59.9347 50.5949 60.198 51.2315 60.198 51.8952C60.198 52.5588 59.9347 53.1954 59.4659 53.6652C59.2335 53.8976 58.9576 54.0821 58.6539 54.2079C58.3502 54.3337 58.0247 54.3985 57.696 54.3984C57.3673 54.3984 57.0418 54.3337 56.7381 54.2079C56.4344 54.082 56.1585 53.8976 55.9261 53.6652L47.6538 45.3929L50.9561 42.0906ZM48.9063 41.4057L47.2065 43.1055L46.0306 41.9296C46.3335 41.6716 46.6282 41.3998 46.9148 41.114C47.2009 40.8279 47.4728 40.5332 47.7304 40.2298L48.9063 41.4057ZM27.1767 21.376C28.9934 19.5593 31.308 18.3221 33.8278 17.8209C36.3476 17.3196 38.9595 17.5769 41.3332 18.56C43.7068 19.5432 45.7356 21.2082 47.163 23.3444C48.5903 25.4806 49.3522 27.9921 49.3522 30.5613C49.3523 33.1305 48.5904 35.642 47.1631 37.7782C45.7357 39.9144 43.7069 41.5794 41.3333 42.5626C38.9597 43.5458 36.3478 43.8031 33.828 43.3019C31.3081 42.8007 28.9935 41.5635 27.1768 39.7468C25.9657 38.5433 25.0046 37.1121 24.3487 35.5358C23.6929 33.9594 23.3552 32.2688 23.3552 30.5614C23.3552 28.8541 23.6928 27.1635 24.3487 25.5871C25.0045 24.0107 25.9656 22.5796 27.1767 21.376ZM61.166 0H4.83398C3.55237 0.00144185 2.32367 0.511198 1.41743 1.41743C0.511198 2.32367 0.00144185 3.55237 0 4.83398V61.166C0.00144219 62.4476 0.511199 63.6763 1.41743 64.5826C2.32367 65.4888 3.55237 65.9986 4.83398 66H61.166C62.4476 65.9986 63.6763 65.4888 64.5826 64.5826C65.4888 63.6763 65.9986 62.4476 66 61.166V4.83398C65.9986 3.55237 65.4888 2.32367 64.5826 1.41743C63.6763 0.511198 62.4476 0.00144185 61.166 0ZM64.0664 61.166C64.0655 61.935 63.7597 62.6722 63.2159 63.2159C62.6722 63.7597 61.935 64.0655 61.166 64.0664H4.83398C4.06502 64.0655 3.32781 63.7597 2.78407 63.2159C2.24034 62.6722 1.93448 61.935 1.93359 61.166V13.5352H64.0664V61.166ZM64.0664 11.6016H1.93359V4.83398C1.93448 4.06502 2.24034 3.32781 2.78407 2.78407C3.32781 2.24034 4.06502 1.93448 4.83398 1.93359H61.166C61.935 1.93448 62.6722 2.24034 63.2159 2.78407C63.7597 3.32781 64.0655 4.06502 64.0664 4.83398V11.6016ZM10.9089 6.04915C10.7177 6.04915 10.5308 6.10586 10.3718 6.21209C10.2128 6.31832 10.0889 6.46931 10.0157 6.64597C9.94256 6.82263 9.92342 7.01702 9.96072 7.20456C9.99803 7.3921 10.0901 7.56437 10.2253 7.69958C10.3605 7.83479 10.5328 7.92687 10.7203 7.96417C10.9079 8.00148 11.1023 7.98233 11.2789 7.90915C11.4556 7.83598 11.6066 7.71206 11.7128 7.55307C11.819 7.39409 11.8757 7.20717 11.8757 7.01595C11.8757 6.75954 11.7739 6.51363 11.5926 6.33232C11.4113 6.15102 11.1654 6.04916 10.9089 6.04915ZM7.66992 36.7383H11.666C12.1616 36.7377 12.6367 36.5406 12.9871 36.1902C13.3375 35.8398 13.5346 35.3647 13.5352 34.8691V30.873C13.5346 30.3775 13.3375 29.9024 12.9871 29.552C12.6367 29.2016 12.1616 29.0045 11.666 29.0039H7.66992C7.17437 29.0045 6.69928 29.2016 6.34887 29.552C5.99846 29.9024 5.80135 30.3775 5.80078 30.873V34.8691C5.80135 35.3647 5.99846 35.8398 6.34887 36.1902C6.69928 36.5406 7.17437 36.7377 7.66992 36.7383ZM7.73438 30.9375H11.6016V34.8047H7.73438V30.9375ZM7.66992 59.9414H11.666C12.1616 59.9408 12.6367 59.7437 12.9871 59.3933C13.3375 59.0429 13.5346 58.5678 13.5352 58.0723V54.0762C13.5346 53.5806 13.3375 53.1055 12.9871 52.7551C12.6367 52.4047 12.1616 52.2076 11.666 52.207H7.66992C7.17437 52.2076 6.69928 52.4047 6.34887 52.7551C5.99846 53.1055 5.80135 53.5806 5.80078 54.0762V58.0723C5.80135 58.5678 5.99846 59.0429 6.34887 59.3933C6.69928 59.7437 7.17437 59.9408 7.66992 59.9414ZM7.73438 54.1406H11.6016V58.0078H7.73438V54.1406ZM7.66992 25.1367H11.666C12.1616 25.1361 12.6367 24.939 12.9871 24.5886C13.3375 24.2382 13.5346 23.7631 13.5352 23.2676V19.2715C13.5346 18.7759 13.3375 18.3008 12.9871 17.9504C12.6367 17.6 12.1616 17.4029 11.666 17.4023H7.66992C7.17437 17.4029 6.69928 17.6 6.34887 17.9504C5.99846 18.3008 5.80135 18.7759 5.80078 19.2715V23.2676C5.80135 23.7631 5.99846 24.2382 6.34887 24.5886C6.69928 24.939 7.17437 25.1361 7.66992 25.1367ZM7.73438 19.3359H11.6016V23.2031H7.73438V19.3359ZM18.6433 57.041H51.498C51.7545 57.041 52.0004 56.9392 52.1817 56.7579C52.363 56.5765 52.4648 56.3306 52.4648 56.0742C52.4648 55.8178 52.363 55.5719 52.1817 55.3906C52.0004 55.2093 51.7545 55.1074 51.498 55.1074H18.6433C18.3869 55.1074 18.141 55.2093 17.9597 55.3906C17.7784 55.5719 17.6765 55.8178 17.6765 56.0742C17.6765 56.3306 17.7784 56.5765 17.9597 56.7579C18.141 56.9392 18.3869 57.041 18.6433 57.041ZM7.04176 6.04915C6.85055 6.04915 6.66363 6.10586 6.50464 6.21209C6.34565 6.31832 6.22173 6.46931 6.14856 6.64597C6.07538 6.82263 6.05624 7.01702 6.09354 7.20456C6.13085 7.3921 6.22292 7.56437 6.35813 7.69958C6.49334 7.83479 6.66561 7.92687 6.85315 7.96417C7.04069 8.00148 7.23508 7.98233 7.41174 7.90915C7.5884 7.83598 7.73939 7.71206 7.84562 7.55307C7.95186 7.39409 8.00856 7.20717 8.00856 7.01595C8.00856 6.75954 7.9067 6.51363 7.72539 6.33232C7.54408 6.15102 7.29817 6.04916 7.04176 6.04915ZM18.6433 45.4395H24.6518C24.9082 45.4395 25.1541 45.3376 25.3354 45.1563C25.5168 44.975 25.6186 44.7291 25.6186 44.4727C25.6186 44.2163 25.5168 43.9703 25.3354 43.789C25.1541 43.6077 24.9082 43.5059 24.6518 43.5059H18.6433C18.3869 43.5059 18.141 43.6077 17.9597 43.789C17.7784 43.9703 17.6765 44.2163 17.6765 44.4727C17.6765 44.7291 17.7784 44.975 17.9597 45.1563C18.141 45.3376 18.3869 45.4395 18.6433 45.4395Z"/>
    </symbol>

    <symbol id="stage-icon3" viewBox="0 0 66 66">
        <path d="M65.0332 33.6305H46.0324V30.9395H52.1426C53.741 30.9395 55.043 29.6266 55.043 28.0146V15.9638C55.043 14.3518 53.741 13.0388 52.1426 13.0388H34.1215C32.523 13.0388 31.2211 14.3518 31.2211 15.9638V21.1767L26.7996 19.8117C26.1422 19.6167 25.691 19.0057 25.691 18.3037V17.7187C27.0188 16.5098 27.7664 14.7808 27.7664 12.9738V10.8678C27.7664 10.8418 27.7664 10.8288 27.7664 10.8028L28.5785 7.31889C28.9266 5.87591 28.643 4.35493 27.8309 3.11995C27.0187 1.88497 25.7297 1.03998 24.273 0.792988C23.6156 0.688989 22.9711 0.558991 22.3266 0.428993L21.8883 0.350995C20.9859 0.168997 20.2641 0.0129998 19.2844 0H19.1812C17.5699 0 16.0488 0.740989 15.0563 2.01497C14.0508 3.30195 13.677 4.99192 14.0508 6.5909L15.0434 10.8158C15.0434 10.8288 15.0434 10.8548 15.0434 10.8678V12.9868C15.0434 14.7548 15.7652 16.4578 17.0543 17.6667V18.3297C17.0543 19.0187 16.6031 19.6297 15.9457 19.8377L13.2645 20.6567L13.2387 20.6697L10.7766 21.4237C8.23711 22.1907 6.49687 24.5566 6.50977 27.2216V33.6305H0.966797C0.438281 33.6305 0 34.0725 0 34.6055V40.4554C0 40.9884 0.438281 41.4304 0.966797 41.4304H4.83398V65.025C4.83398 65.558 5.27227 66 5.80078 66C6.3293 66 6.76758 65.558 6.76758 65.025V41.4304H59.2324V65.025C59.2324 65.558 59.6707 66 60.1992 66C60.7277 66 61.166 65.558 61.166 65.025V41.4304H65.0332C65.5617 41.4304 66 40.9884 66 40.4554V34.6055C66 34.0725 65.5617 33.6305 65.0332 33.6305ZM33.1547 15.9768C33.1547 15.4438 33.593 15.0018 34.1215 15.0018H52.1555C52.684 15.0018 53.1223 15.4438 53.1223 15.9768V28.0276C53.1223 28.5606 52.684 29.0026 52.1555 29.0026H46.0453V24.8686C46.0453 24.3356 45.607 23.8936 45.0785 23.8936H41.2113C40.6828 23.8936 40.2445 24.3356 40.2445 24.8686V29.0026H34.1344C33.6059 29.0026 33.1676 28.5606 33.1676 28.0276V15.9768H33.1547ZM44.0988 25.8306V33.6305H42.1652V25.8306H44.0988ZM40.2316 30.9395V33.6305H36.2871V30.9395H40.2316ZM31.2211 23.2176V28.0146C31.2211 29.6266 32.523 30.9395 34.1215 30.9395H34.3535V33.6305H30.0996V30.1335C30.0996 29.6006 29.6613 29.1586 29.1328 29.1586C28.6043 29.1586 28.166 29.6006 28.166 30.1335V33.6305H22.3652V24.9206L23.6543 26.3896C24.0023 26.7926 24.6082 26.8316 25.0078 26.4936L29.4422 22.6717L31.2211 23.2176ZM21.3598 21.2287L18.7301 19.6427C18.8203 19.4087 18.8848 19.1617 18.9363 18.9147C20.4961 19.5777 22.2492 19.5907 23.809 18.9407C23.8477 19.1747 23.9121 19.4087 24.0023 19.6297L21.3598 21.2287ZM26.2324 21.6837L27.2508 21.9957L24.4793 24.3746L22.8938 22.5677L25.2012 21.1637C25.5105 21.3977 25.8586 21.5667 26.2324 21.6837ZM16.268 7.60488L15.9328 6.14891C15.6879 5.12192 15.9328 4.04294 16.5902 3.22395C17.2219 2.41796 18.1887 1.94997 19.207 1.94997H19.2844C20.0836 1.96297 20.6508 2.07997 21.5145 2.26197L21.9527 2.35296C22.6102 2.48296 23.2934 2.61296 23.9637 2.72996C25.807 3.04195 27.0574 4.79693 26.748 6.6559C26.7352 6.7339 26.7223 6.7989 26.7094 6.8769L26.5418 7.57889C25.9488 7.14989 25.3172 7.08489 24.8016 7.03289C24.3246 6.98089 23.9508 6.9419 23.5641 6.6559C21.8109 5.34292 20.3672 6.10991 19.2973 6.91589C19.0137 7.13689 18.7043 7.14989 18.1758 7.14989C17.6473 7.14989 16.9125 7.16289 16.268 7.60488ZM16.9641 12.9998V10.8418C16.9641 10.8158 16.9641 10.8028 16.9641 10.7768C16.9125 10.0358 17.0156 9.50286 17.2734 9.26886C17.4281 9.12586 17.6602 9.11286 18.1629 9.11286C18.7816 9.11286 19.6324 9.11286 20.4445 8.48887C20.973 8.08588 21.334 7.91688 21.6434 7.91688C21.9012 7.91688 22.1332 8.03388 22.4039 8.24187C23.216 8.85287 24.0281 8.93086 24.6082 8.99586C25.1238 9.04786 25.3172 9.08686 25.4977 9.25586C25.8328 9.59385 25.8715 10.2828 25.8457 10.8028C25.8457 10.8288 25.8457 10.8418 25.8457 10.8548V13.0128C25.8457 15.4828 23.8605 17.4847 21.4113 17.4847C18.9621 17.4587 16.977 15.4698 16.9641 12.9998ZM16.5 21.7097C16.8738 21.5927 17.2219 21.4237 17.5312 21.1897L19.8129 22.5677L18.2145 24.3876L15.4688 22.0217L16.5 21.7097ZM8.44336 27.2346C8.44336 25.4146 9.61641 23.8156 11.3438 23.2956L13.2902 22.6977L17.6859 26.4936C18.0855 26.8446 18.6914 26.7926 19.0395 26.4026L20.4316 24.8166V33.6305H14.6309V30.1335C14.6309 29.6006 14.1926 29.1586 13.6641 29.1586C13.1355 29.1586 12.6973 29.6006 12.6973 30.1335V33.6305H8.44336V27.2346ZM64.0664 39.4804H1.93359V35.5805H64.0664V39.4804Z"/>
    </symbol>

    <symbol id="stage-icon4" viewBox="0 0 64 50">
        <path d="M61 0H3C2.20435 0 1.44129 0.316071 0.87868 0.87868C0.31607 1.44129 0 2.20435 0 3V37C0 37.7957 0.31607 38.5587 0.87868 39.1213C1.44129 39.6839 2.20435 40 3 40H3.5V42C3.5 42.7957 3.81607 43.5587 4.37868 44.1213C4.94129 44.6839 5.70435 45 6.5 45H7V47C7 47.7957 7.31607 48.5587 7.87868 49.1213C8.44129 49.6839 9.20435 50 10 50H54C54.7957 50 55.5587 49.6839 56.1213 49.1213C56.6839 48.5587 57 47.7957 57 47V45H57.5C58.2957 45 59.0587 44.6839 59.6213 44.1213C60.1839 43.5587 60.5 42.7957 60.5 42V40H61C61.7957 40 62.5587 39.6839 63.1213 39.1213C63.6839 38.5587 64 37.7957 64 37V3C64 2.20435 63.6839 1.44129 63.1213 0.87868C62.5587 0.316071 61.7957 0 61 0ZM55 47C55 47.2652 54.8946 47.5196 54.7071 47.7071C54.5196 47.8946 54.2652 48 54 48H10C9.73478 48 9.48043 47.8946 9.29289 47.7071C9.10536 47.5196 9 47.2652 9 47V45H55V47ZM58.5 42C58.5 42.2652 58.3946 42.5196 58.2071 42.7071C58.0196 42.8946 57.7652 43 57.5 43H6.5C6.23478 43 5.98043 42.8946 5.79289 42.7071C5.60536 42.5196 5.5 42.2652 5.5 42V40H58.5V42ZM62 37C62 37.2652 61.8946 37.5196 61.7071 37.7071C61.5196 37.8946 61.2652 38 61 38H3C2.73478 38 2.48043 37.8946 2.29289 37.7071C2.10536 37.5196 2 37.2652 2 37V3C2 2.73478 2.10536 2.48043 2.29289 2.29289C2.48043 2.10536 2.73478 2 3 2H61C61.2652 2 61.5196 2.10536 61.7071 2.29289C61.8946 2.48043 62 2.73478 62 3V37Z"/>
        <path d="M56 14C54.4087 14 52.8826 13.3679 51.7574 12.2426C50.6321 11.1174 50 9.5913 50 8C50 7.73478 49.8946 7.48043 49.7071 7.29289C49.5196 7.10536 49.2652 7 49 7H15C14.7348 7 14.4804 7.10536 14.2929 7.29289C14.1054 7.48043 14 7.73478 14 8C14 9.5913 13.3679 11.1174 12.2426 12.2426C11.1174 13.3679 9.5913 14 8 14C7.73478 14 7.48043 14.1054 7.29289 14.2929C7.10536 14.4804 7 14.7348 7 15V25C7 25.2652 7.10536 25.5196 7.29289 25.7071C7.48043 25.8946 7.73478 26 8 26C9.5913 26 11.1174 26.6321 12.2426 27.7574C13.3679 28.8826 14 30.4087 14 32C14 32.2652 14.1054 32.5196 14.2929 32.7071C14.4804 32.8946 14.7348 33 15 33H49C49.2652 33 49.5196 32.8946 49.7071 32.7071C49.8946 32.5196 50 32.2652 50 32C50 30.4087 50.6321 28.8826 51.7574 27.7574C52.8826 26.6321 54.4087 26 56 26C56.2652 26 56.5196 25.8946 56.7071 25.7071C56.8946 25.5196 57 25.2652 57 25V15C57 14.7348 56.8946 14.4804 56.7071 14.2929C56.5196 14.1054 56.2652 14 56 14ZM55 24.06C53.2367 24.2816 51.5974 25.084 50.3407 26.3407C49.084 27.5974 48.2816 29.2367 48.06 31H15.94C15.7184 29.2367 14.916 27.5974 13.6593 26.3407C12.4026 25.084 10.7633 24.2816 9 24.06V15.94C10.7633 15.7184 12.4026 14.916 13.6593 13.6593C14.916 12.4026 15.7184 10.7633 15.94 9H48.06C48.2816 10.7633 49.084 12.4026 50.3407 13.6593C51.5974 14.916 53.2367 15.7184 55 15.94V24.06Z"/>
        <path d="M32 11C30.22 11 28.4799 11.5278 26.9999 12.5168C25.5198 13.5057 24.3663 14.9113 23.6851 16.5558C23.0039 18.2004 22.8257 20.01 23.1729 21.7558C23.5202 23.5016 24.3774 25.1053 25.636 26.364C26.8947 27.6226 28.4984 28.4798 30.2442 28.8271C31.99 29.1743 33.7996 28.9961 35.4442 28.3149C37.0887 27.6337 38.4943 26.4802 39.4832 25.0001C40.4722 23.5201 41 21.78 41 20C41 17.6131 40.0518 15.3239 38.364 13.636C36.6761 11.9482 34.387 11 32 11ZM32 27C30.6155 27 29.2622 26.5895 28.111 25.8203C26.9599 25.0511 26.0627 23.9579 25.5328 22.6788C25.003 21.3997 24.8644 19.9922 25.1345 18.6344C25.4046 17.2765 26.0713 16.0292 27.0503 15.0503C28.0292 14.0713 29.2765 13.4046 30.6344 13.1345C31.9922 12.8644 33.3997 13.003 34.6788 13.5328C35.9579 14.0627 37.0511 14.9599 37.8203 16.111C38.5895 17.2622 39 18.6155 39 20C39 21.8565 38.2625 23.637 36.9498 24.9497C35.637 26.2625 33.8565 27 32 27Z"/>
    </symbol>

    <symbol id="user" viewBox="0 0 26 29">
        <path d="M20.0968 6.90476C20.0968 10.7182 16.9194 13.8095 13 13.8095C9.08055 13.8095 5.90321 10.7182 5.90321 6.90476C5.90321 3.09137 9.08055 0 13 0C16.9194 0 20.0968 3.09137 20.0968 6.90476Z"/>
        <path d="M13 15.1905C7.62706 15.1905 2.95141 18.0951 0.541385 22.3785C-1.34065 25.7235 1.98376 29 5.90321 29H20.0968C24.0162 29 27.3407 25.7235 25.4586 22.3785C23.0486 18.0951 18.3729 15.1905 13 15.1905Z"/>
    </symbol>

    <symbol id="telegram" viewBox="0 0 50 50">
        <path d="M25 8.61347e-08C20.0555 8.61347e-08 15.222 1.46622 11.1108 4.21326C6.99953 6.96029 3.79521 10.8648 1.90302 15.4329C0.0108321 20.0011 -0.484251 25.0277 0.480379 29.8772C1.44501 34.7268 3.82603 39.1813 7.32234 42.6777C10.8187 46.174 15.2732 48.555 20.1228 49.5196C24.9723 50.4842 29.9989 49.9892 34.5671 48.097C39.1352 46.2048 43.0397 43.0005 45.7867 38.8892C48.5338 34.778 50 29.9445 50 25C50.0003 21.7169 49.3538 18.4658 48.0975 15.4326C46.8413 12.3993 44.9998 9.64324 42.6783 7.32172C40.3568 5.0002 37.6007 3.15873 34.5674 1.90246C31.5342 0.646186 28.2831 -0.000272447 25 8.61347e-08ZM32.9488 37.8812C32.8552 38.1145 32.7128 38.3251 32.5312 38.4989C32.3496 38.6727 32.1329 38.8057 31.8957 38.8889C31.6584 38.9721 31.4062 39.0037 31.1558 38.9814C30.9054 38.9592 30.6626 38.8836 30.4438 38.7599L23.6571 33.4865L19.3013 37.505C19.2002 37.5797 19.082 37.6277 18.9575 37.6447C18.833 37.6617 18.7062 37.6472 18.5888 37.6023L19.4238 30.1312L19.4505 30.1524L19.4676 30.0049C19.4676 30.0049 31.6801 18.8861 32.1776 18.4124C32.6813 17.9399 32.5151 17.8374 32.5151 17.8374C32.5438 17.2611 31.6113 17.8374 31.6113 17.8374L15.43 28.2475L8.69129 25.9525C8.69129 25.9525 7.65628 25.5812 7.55878 24.765C7.45628 23.955 8.72501 23.515 8.72501 23.515L35.5175 12.8712C35.5175 12.8712 37.72 11.8899 37.72 13.515L32.9488 37.8812Z"/>
    </symbol>

    <symbol id="arrow-bottom" viewBox="0 0 19 11">
        <path d="M18.25 1.25L9.625 9.5L1 1.25" stroke-width="2"/>
    </symbol>

    <symbol id="arrow-right" viewBox="0 0 14 25">
        <path d="M1 1L12 12.5L1 24" stroke-width="2"/>
    </symbol>

    <symbol id="arrow-left" viewBox="0 0 14 25">
        <path d="M13 24L2 12.5L13 0.999999" stroke-width="2"/>
    </symbol>

</svg>